<?xml version="1.0" standalone="no"?>
<!DOCTYPE svg PUBLIC "-//W3C//DTD SVG 20010904//EN"
 "http://www.w3.org/TR/2001/REC-SVG-20010904/DTD/svg10.dtd">
<svg version="1.0" xmlns="http://www.w3.org/2000/svg"
 width="1280.000000pt" height="1280.000000pt" viewBox="0 0 1280.000000 1280.000000"
 preserveAspectRatio="xMidYMid meet">
<metadata>
Created by potrace 1.14, written by Peter Selinger 2001-2017
</metadata>
<g transform="translate(0.000000,1280.000000) scale(0.100000,-0.100000)"
fill="#000000" stroke="none">
<path d="M2892 9768 c-6 -13 -55 -126 -108 -253 -53 -126 -107 -253 -119 -280
-12 -28 -39 -91 -60 -140 -44 -108 -55 -132 -89 -208 -14 -32 -26 -60 -26 -62
0 -3 -9 -24 -19 -48 -11 -23 -110 -256 -221 -517 -111 -261 -246 -578 -300
-705 -53 -126 -100 -240 -104 -252 l-7 -21 676 0 c372 0 679 -3 682 -6 3 -3
-2 -22 -12 -42 -10 -21 -30 -67 -45 -103 -34 -82 -226 -534 -246 -578 -30 -70
-43 -100 -69 -163 -14 -36 -34 -83 -44 -105 -10 -22 -76 -175 -146 -340 -70
-165 -133 -313 -140 -330 -7 -16 -22 -51 -34 -77 l-20 -48 -687 -2 -687 -3
-47 -110 c-26 -60 -80 -186 -120 -280 -39 -93 -78 -183 -85 -200 -8 -16 -32
-75 -55 -130 -23 -55 -48 -113 -55 -130 -8 -16 -98 -228 -200 -470 -103 -242
-197 -464 -211 -493 -13 -29 -24 -55 -24 -58 0 -3 -11 -29 -24 -57 -19 -42
-214 -497 -233 -545 -4 -9 674 -12 3370 -12 l3376 0 15 33 c8 17 72 167 141
332 70 165 135 318 145 340 10 22 30 69 45 105 14 36 32 79 40 95 18 42 197
463 317 745 54 129 111 261 125 292 l27 58 765 0 c421 0 822 2 891 5 158 5
317 14 350 20 14 2 54 7 90 10 36 3 74 7 85 9 11 2 43 7 70 10 58 8 199 32
265 46 25 5 56 12 70 14 76 12 389 103 408 118 6 6 12 8 12 5 0 -11 246 95
370 159 116 61 349 208 395 251 11 10 42 36 70 58 220 177 508 524 651 785 10
19 24 42 30 50 23 29 177 334 236 469 174 392 289 723 323 931 3 19 8 42 10
50 13 46 20 154 20 300 0 163 -6 236 -27 315 -5 22 -12 50 -14 62 -8 40 -56
166 -91 238 -62 125 -143 236 -253 345 -249 246 -579 399 -1040 479 -113 20
-150 25 -280 37 -36 3 -78 9 -95 12 -16 3 -1828 7 -4026 9 l-3995 3 -12 -22z
m7908 -452 c63 -3 131 -8 150 -11 19 -2 60 -7 90 -10 50 -5 112 -13 150 -20 8
-1 35 -6 60 -10 86 -13 256 -58 347 -91 386 -140 615 -398 659 -744 37 -290
-48 -636 -301 -1215 -327 -749 -673 -1155 -1215 -1423 -130 -65 -154 -75 -230
-102 -19 -6 -44 -16 -55 -21 -83 -36 -446 -125 -585 -143 -25 -4 -61 -9 -80
-12 -70 -10 -176 -22 -255 -29 -166 -15 -528 -19 -1992 -19 l-1631 0 -91 -213
c-50 -117 -91 -216 -91 -221 0 -4 309 -7 686 -7 377 0 688 -3 690 -7 4 -5
-337 -818 -441 -1053 -7 -16 -25 -57 -39 -90 -14 -33 -61 -143 -104 -245 l-79
-185 -2866 0 c-1577 0 -2867 3 -2867 7 0 4 52 130 116 280 64 150 153 361 199
468 46 107 104 245 129 305 26 61 53 124 61 140 7 17 25 59 40 95 14 36 34 83
44 105 11 22 31 69 46 105 15 36 31 67 35 70 5 3 314 5 688 5 l680 -1 22 51
c12 27 60 140 107 250 46 110 90 214 97 230 8 17 40 91 71 165 31 74 65 153
75 175 9 22 61 144 115 270 120 284 119 282 138 325 8 19 86 202 172 405 86
204 167 394 181 423 13 29 24 55 24 58 0 3 12 31 26 62 14 31 35 79 46 107 11
27 30 73 44 102 13 29 26 63 29 76 l6 24 -675 0 c-372 0 -678 2 -681 4 -2 3
53 140 124 304 70 165 219 516 332 780 112 264 206 482 210 485 11 8 7456 4
7589 -4z"/>
<path d="M3304 8930 c-36 -85 -77 -179 -90 -208 -13 -29 -24 -54 -24 -57 0 -2
-61 -146 -135 -321 -75 -174 -137 -325 -138 -336 -2 -19 10 -19 676 -19 372 0
677 -2 677 -5 0 -2 -40 -99 -90 -215 -49 -116 -90 -213 -90 -214 0 -2 -16 -38
-35 -79 -19 -42 -35 -78 -35 -80 0 -2 -54 -132 -121 -288 -66 -155 -170 -400
-231 -543 -61 -143 -118 -278 -128 -300 -16 -36 -463 -1086 -582 -1366 l-49
-117 -687 0 -686 1 -94 -219 c-115 -271 -363 -855 -368 -869 -3 -7 863 -9
2588 -8 1426 0 2600 2 2609 2 15 1 28 26 68 127 11 28 29 71 40 95 11 24 38
89 61 144 23 55 48 115 56 133 26 59 42 97 64 147 34 81 39 92 115 270 40 94
71 172 69 174 -2 2 -314 3 -694 3 -512 0 -690 3 -687 12 3 6 91 214 197 462
l192 451 1736 1 c956 0 1784 3 1842 6 170 10 304 22 430 41 14 2 48 6 75 10
28 4 52 9 55 10 3 2 24 6 46 9 160 24 422 103 594 179 422 186 726 463 971
882 46 80 199 378 199 389 0 3 14 35 31 73 16 37 35 79 41 93 5 14 16 39 23
55 13 29 97 243 115 295 98 271 133 556 90 726 -51 198 -197 351 -427 448
-104 43 -294 94 -418 111 -22 3 -49 8 -60 10 -11 2 -49 7 -85 10 -36 3 -78 8
-95 10 -99 15 -702 18 -3947 19 l-3597 1 -67 -155z m6031 -955 c297 -48 413
-237 317 -515 -80 -230 -264 -438 -482 -545 -41 -20 -83 -41 -92 -46 -10 -5
-62 -21 -115 -36 l-98 -27 -1322 -2 c-728 -1 -1323 -1 -1323 1 0 4 56 139 79
190 10 22 56 128 101 235 45 107 90 213 100 235 10 22 35 81 55 130 20 50 47
113 59 140 13 28 42 96 66 152 l43 102 1266 0 c992 -1 1283 -4 1346 -14z"/>
<path d="M6881 7736 c-5 -6 -39 -83 -76 -171 -37 -88 -75 -178 -85 -200 -10
-22 -41 -96 -70 -165 -29 -69 -56 -132 -61 -141 -7 -14 103 -15 1109 -14 1258
2 1177 -3 1347 80 185 90 339 264 385 435 28 104 13 135 -83 167 -47 15 -161
16 -1255 18 -851 1 -1205 -2 -1211 -9z"/>
<path d="M7186 3329 c-45 -12 -93 -50 -117 -93 -48 -86 -10 -236 60 -236 l25
0 -27 28 c-86 89 -60 219 53 265 87 36 198 -26 216 -118 9 -49 -11 -111 -46
-147 -28 -27 -28 -28 -6 -28 28 0 50 23 71 73 60 143 -77 297 -229 256z"/>
<path d="M7163 3140 c0 -96 2 -110 16 -108 11 2 16 15 17 43 2 61 3 63 22 58
10 -2 32 -27 47 -54 18 -30 36 -49 47 -49 16 0 14 7 -14 57 -18 31 -27 53 -20
49 16 -10 52 29 52 57 0 41 -29 57 -102 57 l-65 0 0 -110z m131 63 c10 -24 -8
-36 -58 -38 -43 -2 -44 -1 -41 24 1 14 3 27 4 29 0 1 21 2 45 2 32 0 46 -5 50
-17z"/>
</g>
</svg>
